<?xml version="1.0" standalone="no"?>
<!DOCTYPE svg PUBLIC "-//W3C//DTD SVG 20010904//EN"
 "http://www.w3.org/TR/2001/REC-SVG-20010904/DTD/svg10.dtd">
<svg version="1.0" xmlns="http://www.w3.org/2000/svg"
 width="512.000000pt" height="512.000000pt" viewBox="0 0 512.000000 512.000000"
 preserveAspectRatio="xMidYMid meet">
<metadata>
Created by potrace 1.14, written by Peter Selinger 2001-2017
</metadata>
<g transform="translate(0.000000,512.000000) scale(0.100000,-0.100000)"
fill="#000000" stroke="none">
<path d="M799 3834 c-15 -8 -43 -32 -62 -53 -30 -33 -36 -49 -42 -103 -3 -34
-5 -326 -3 -648 3 -571 4 -586 24 -625 11 -22 38 -52 60 -67 l39 -27 570 2
570 2 3 125 c1 69 0 135 -3 148 l-5 22 -416 0 c-349 0 -420 2 -444 15 -61 32
-60 23 -60 437 0 271 3 384 12 403 24 54 32 55 481 55 308 0 416 3 425 12 13
13 18 271 6 302 -6 14 -64 16 -568 15 -458 -1 -566 -4 -587 -15z"/>
<path d="M2377 3843 c-4 -3 -7 -350 -7 -770 l0 -763 203 2 202 3 3 748 c1 504
-1 754 -8 768 -10 18 -23 19 -199 19 -103 0 -191 -3 -194 -7z"/>
<path d="M3190 3831 c-7 -14 -9 -264 -8 -768 l3 -748 484 -3 484 -2 73 36 c89
44 146 100 185 180 l29 62 0 490 c0 448 -2 493 -18 528 -55 121 -125 184 -253
228 -37 13 -118 16 -506 16 -448 0 -463 -1 -473 -19z m869 -325 c50 -26 51
-38 51 -447 l0 -381 -34 -34 -34 -34 -245 0 c-210 0 -248 2 -261 16 -14 14
-16 67 -16 439 0 372 2 425 16 439 22 22 480 24 523 2z"/>
<path d="M1392 1894 l-42 -25 -26 20 c-27 21 -76 27 -122 15 l-22 -6 2 -327 3
-326 70 0 70 0 5 220 c6 236 12 264 62 299 26 18 80 21 109 6 46 -25 53 -61
59 -300 l5 -225 70 0 70 0 6 215 c5 231 14 271 60 304 35 24 101 21 126 -6 11
-13 24 -32 28 -43 5 -11 11 -121 14 -245 l6 -225 70 0 70 0 0 250 c0 275 -4
301 -58 362 -41 47 -82 63 -159 63 -66 0 -118 -19 -170 -61 l-27 -22 -39 31
c-51 41 -82 52 -145 52 -38 0 -64 -7 -95 -26z"/>
<path d="M2466 1906 c-83 -31 -166 -122 -192 -213 -24 -83 -16 -211 18 -284
75 -163 251 -230 403 -154 33 17 63 31 67 33 4 2 12 -8 18 -23 9 -25 13 -26
77 -23 l68 3 3 320 c3 359 5 345 -71 345 -44 0 -77 -15 -77 -35 0 -27 -19 -25
-69 7 -44 27 -63 32 -129 35 -50 2 -90 -2 -116 -11z m213 -140 c116 -60 144
-246 52 -350 -55 -62 -168 -73 -235 -22 -116 88 -106 291 18 367 38 23 124 25
165 5z"/>
<path d="M3364 1890 c-66 -33 -84 -37 -84 -15 0 29 -68 45 -128 29 l-22 -6 2
-507 3 -506 70 0 70 0 5 200 c3 123 9 200 15 200 6 0 37 -13 70 -30 50 -25 72
-30 131 -30 124 1 216 63 273 185 23 48 26 68 26 160 0 99 -2 110 -33 172 -79
161 -249 224 -398 148z m174 -124 c65 -34 104 -105 105 -190 0 -137 -81 -224
-199 -214 -102 9 -167 89 -168 208 -2 128 69 210 182 210 29 0 65 -6 80 -14z"/>
</g>
</svg>
